<svg xmlns="http://www.w3.org/2000/svg" viewBox="0 0 1000 222.05"><defs><style>.cls-1{fill:#cb333b;}</style></defs><title>rp-logo-red</title><g id="Layer_2" data-name="Layer 2"><g id="Layer_1-2" data-name="Layer 1"><path class="cls-1" d="M419.3,139.77c-1.1-.8-2.2-.6-3.2.6-1.3,2.2-4,4.5-7.9,6.8a27.3,27.3,0,0,1-14.1,3.5,20.84,20.84,0,0,1-14.7-6.1c-4.2-3.9-6.6-9.6-7-16.7h49a2.09,2.09,0,0,0,2.4-2.3v-1.1c0-10.3-2.7-18.6-8.1-24.6s-12.9-9.2-22.3-9.2a33.7,33.7,0,0,0-24,9.4c-6.5,6.3-9.8,14.9-9.8,25.7s3.3,19.5,9.9,25.9,14.8,9.6,24.5,9.6a39.8,39.8,0,0,0,12.1-1.8,30.35,30.35,0,0,0,9.2-4.5,41.06,41.06,0,0,0,5.5-4.7,21.84,21.84,0,0,0,2.6-3.1,3.2,3.2,0,0,0,.7-1.9,2.56,2.56,0,0,0-1-1.8Zm-39.9-34.5a21.94,21.94,0,0,1,13.9-4.6c5.3,0,9.7,1.7,12.9,4.9s4.8,7.5,5.2,12.8H372.7C373.4,112.67,375.7,108.27,379.4,105.27Z"/><path class="cls-1" d="M549.1,150.17h-7.2V93.77a2,2,0,0,0-2.2-2.2H522.6a2,2,0,0,0-2.2,2.2v5.9a2,2,0,0,0,2.2,2.2h6.9v37.4c0,.3-.3,1.3-2.4,4-3.7,4.8-8.9,7.2-15.4,7.2-4.8,0-8.5-1.4-10.9-4.2s-3.7-6.9-3.7-12.1V97.87c0-4.1-2.2-6.3-6.4-6.3H448.8V78.17a2.09,2.09,0,0,0-2.3-2.4h-7.7a2.16,2.16,0,0,0-2.4,2.4v13.4h-7.2a2.09,2.09,0,0,0-2.4,2.3v5.6a2.13,2.13,0,0,0,2.4,2.3h7.2v35.6c0,7.7,2,13.7,6,17.8s9.2,6.1,15.4,6.1,11.4-1.8,15.6-5.5a2.56,2.56,0,0,0,1-1.8,1.93,1.93,0,0,0-.7-1.5l-3.3-4.3a2,2,0,0,0-3.2-.2c-1.6,1.6-4.1,2.5-7.4,2.5a10.12,10.12,0,0,1-7.9-3.3c-2-2.2-3-5.6-3-10.1v-35.3h36v35c.1,7.3,2.3,13.3,6.7,17.8s10.3,6.7,17.8,6.7c10.2,0,17.4-3.7,21.4-11v3.8c0,4.1,2.2,6.3,6.4,6.3h12a2,2,0,0,0,2.3-2.2v-5.9a2.09,2.09,0,0,0-2.4-2.1Z"/><path class="cls-1" d="M608.4,91.37a37,37,0,0,0-12.8,2.1,29,29,0,0,0-8.7,4.7,27.38,27.38,0,0,0-5.5,6.5A28.54,28.54,0,0,0,579,109V93.77a2,2,0,0,0-2.3-2.2H560.6a2,2,0,0,0-2.3,2.2v5.9a2,2,0,0,0,2.3,2.2h7.1v48.3h-7.1a2,2,0,0,0-2.3,2.2v5.9a2,2,0,0,0,2.3,2.2h26.3a2,2,0,0,0,2.3-2.2v-5.9a2,2,0,0,0-2.3-2.2h-6.8v-22.6a24.26,24.26,0,0,1,6.9-16.9,23,23,0,0,1,13.1-7v2.9a2.11,2.11,0,0,0,2.1,2.1h6.3a2.11,2.11,0,0,0,2.1-2.1V93.67a2,2,0,0,0-2.2-2.3Z"/><path class="cls-1" d="M690.6,150.17h-7.2v-35c-.1-7.4-2.3-13.4-6.5-17.8s-10.1-6.6-17.6-6.6c-9.8,0-17.2,3.8-22,11.3l.2-8.2a2,2,0,0,0-2.3-2.2H619.1a2,2,0,0,0-2.3,2.2v5.9a2,2,0,0,0,2.3,2.2h7.1v48.3h-7.1a2,2,0,0,0-2.3,2.2v5.9a2,2,0,0,0,2.3,2.2h26.3a2,2,0,0,0,2.3-2.2v-5.9a2,2,0,0,0-2.3-2.2h-6.8v-37.2a25,25,0,0,1,1.7-2.9,18.46,18.46,0,0,1,16.1-8.5c4.8,0,8.5,1.4,10.9,4.2s3.7,6.9,3.7,12.1v36.2c0,4.1,2.2,6.3,6.4,6.3h13.1a2,2,0,0,0,2.3-2.2v-5.9c.1-1.5-.8-2.2-2.2-2.2Z"/><path class="cls-1" d="M789.5,69.07c-6.3-5.7-14.4-8.6-24.2-8.6H722.9a2,2,0,0,0-2.3,2.2v7a2,2,0,0,0,2.3,2.2h10v77.2h-10a2,2,0,0,0-2.3,2.2v7a2,2,0,0,0,2.3,2.2h35.9a2,2,0,0,0,2.2-2.2v-7a2,2,0,0,0-2.2-2.2h-13v-26h17.9c11.1,0,19.8-2.7,25.9-8s9.3-13,9.3-22.7S795.8,74.77,789.5,69.07Zm-26.3,43.2H745.8V71.87h17.5c6.5,0,11.9,1.7,16.1,5.1s6.4,8.6,6.4,15.4C785.8,105.77,778.4,112.27,763.2,112.27Z"/><path class="cls-1" d="M870.2,150.17H863v-31.4c0-18.6-9.9-28-29.4-28a48.41,48.41,0,0,0-17.4,2.9c-5,2-8.2,4-9.8,6a1.92,1.92,0,0,0-.3,2.9l3.8,4.8c.8,1.1,2.2,1.1,3.7-.1a17.54,17.54,0,0,1,2.4-1.5,43.57,43.57,0,0,1,5.2-2.5c2.4-1,6.4-1.5,11.9-1.5,11.7,0,17.4,5.5,17.4,16.7v1.1H839.4c-11.5,0-20.7,1.8-27.3,5.4s-10.1,9.3-10.1,17a17.87,17.87,0,0,0,6.5,14.4c4.3,3.5,9.9,5.3,16.6,5.3,11,0,19.9-4.5,26.6-13.3v5.9c0,4.1,2.2,6.3,6.4,6.3h12a2,2,0,0,0,2.2-2.2v-5.9c.1-1.6-.7-2.3-2.1-2.3Zm-19.6-11c-5.9,7.6-13.3,11.5-21.9,11.5q-6.15,0-9.9-3a9.05,9.05,0,0,1-3.7-7.5,8.51,8.51,0,0,1,3.4-7.2,20,20,0,0,1,8.7-3.5,94.52,94.52,0,0,1,13.1-.8h10.4v10.5Z"/><path class="cls-1" d="M915,148.27a2,2,0,0,0-3.2-.2c-1.6,1.6-4.1,2.5-7.4,2.5a10.12,10.12,0,0,1-7.9-3.3c-2-2.2-3-5.6-3-10.1v-35.3h17a2.09,2.09,0,0,0,2.4-2.3V94a2.13,2.13,0,0,0-2.4-2.3h-17V78.17a2.09,2.09,0,0,0-2.3-2.4h-7.7a2.16,2.16,0,0,0-2.4,2.4v13.4h-7.2a2.09,2.09,0,0,0-2.4,2.3v5.6a2.13,2.13,0,0,0,2.4,2.3h7.2v35.6c0,7.7,2,13.7,6,17.8s9.2,6.1,15.4,6.1,11.4-1.8,15.6-5.5a2.56,2.56,0,0,0,1-1.8,1.93,1.93,0,0,0-.7-1.5Z"/><path class="cls-1" d="M997.7,150.17h-7.2v-35c-.1-7.4-2.3-13.4-6.5-17.8s-10.1-6.6-17.6-6.6q-14.1,0-21,9.6c.2-2.2.4-4.5.4-6.9V62.67a2,2,0,0,0-2.2-2.2H926.3a2,2,0,0,0-2.3,2.2v5.9a2,2,0,0,0,2.3,2.2h7.1v79.4h-7.1a2,2,0,0,0-2.3,2.2v5.9a2,2,0,0,0,2.3,2.2h26.3a2,2,0,0,0,2.3-2.2v-5.9a2,2,0,0,0-2.3-2.2h-6.8v-37.1a27.34,27.34,0,0,1,2.6-4.3,18.19,18.19,0,0,1,2.4-2.5,52.59,52.59,0,0,1,4.4-3c1.9-1.1,4.7-1.7,8.4-1.7,4.8,0,8.5,1.4,10.9,4.2s3.7,6.9,3.7,12.1v36.2c0,4.1,2.2,6.3,6.4,6.3h13.1a2,2,0,0,0,2.3-2.2v-5.9c0-1.4-.8-2.1-2.3-2.1Z"/><path class="cls-1" d="M356.4,147.37h-.6a19.25,19.25,0,0,1-16.9-10.1l-10.4-19.4a29.08,29.08,0,0,0,10.5-5.5,29.62,29.62,0,0,0,8.2-14.5c.1-.5.2-.9.3-1.4.1-.3.1-.7.2-1a36.36,36.36,0,0,0,.3-4.8c0-9.6-3.2-17.1-9.4-22.3s-14.4-7.9-24.3-7.9H271.9a2,2,0,0,0-2.3,2.2v7a2,2,0,0,0,2.3,2.2h10v77.2h-10a2,2,0,0,0-2.3,2.2v7a2,2,0,0,0,2.3,2.2h34.8a2.22,2.22,0,0,0,2.2-2.2v-7a2.22,2.22,0,0,0-2.2-2.2H294.8v-28.4h17a5.93,5.93,0,0,1,5.1,3l10.7,19.8a32.18,32.18,0,0,0,28.3,16.9h.6a2.22,2.22,0,0,0,2.2-2.2v-8.7a2.45,2.45,0,0,0-2.3-2.1Zm-44.5-37.6H294.8v-38h17.1c15.4,0,22.9,6.3,22.9,19.3C334.8,103.67,327.3,109.77,311.9,109.77Z"/><path class="cls-1" d="M206.7,38.57v119.6H176.4a28,28,0,0,1-24.4-14.3l-6-10.6a1.29,1.29,0,0,0-1.5-.6,43.08,43.08,0,0,1-12.3,1.8h-1.8a.7.7,0,0,0-.6,1.1l8.8,15.7a43,43,0,0,0,37.7,22.1H219a2.9,2.9,0,0,0,2.9-2.9V38.07a27.48,27.48,0,0,0-27.5-27.5H19.4V1.47a1.44,1.44,0,0,0-2.5-1L.6,16.77a1.93,1.93,0,0,0,0,2.8L17,36a1.46,1.46,0,0,0,2.5-1v-9.1H194a12.59,12.59,0,0,1,12.7,12.7Z"/><path class="cls-1" d="M224.5,186.07a1.46,1.46,0,0,0-2.5,1v9.1H47.8A12.76,12.76,0,0,1,35,183.37V63.87h94.3a21.8,21.8,0,0,1,0,43.6H78.5a2.9,2.9,0,0,0-2.9,2.9v60.1a2.9,2.9,0,0,0,2.9,2.9h9.3a2.9,2.9,0,0,0,2.9-2.9v-47.8h38.5a37,37,0,0,0,0-74H22.6a2.9,2.9,0,0,0-2.9,2.9V184a27.48,27.48,0,0,0,27.5,27.5H221.8v9.1a1.44,1.44,0,0,0,2.5,1l16.4-16.4a1.93,1.93,0,0,0,0-2.8Z"/></g></g></svg>