<svg enable-background="new 0 0 360 331.1" height="331.1" viewBox="0 0 360 331.1" width="360" xmlns="http://www.w3.org/2000/svg"><g fill="#fff"><path d="m308.3 57.5v178.4h-45.2c-15.1 0-29-8.2-36.4-21.4l-8.9-15.8c-.4-.8-1.3-1.1-2.2-.9-6 1.8-12.2 2.7-18.3 2.7h-2.7c-.8 0-1.4.9-.9 1.6l13.1 23.5c11.3 20.4 32.9 33 56.2 33h63.5c2.4 0 4.4-2 4.4-4.4v-197.4c0-22.6-18.4-41-41-41h-260.9v-13.6c0-2-2.4-2.9-3.7-1.6l-24.4 24.4c-1.1 1.1-1.1 3 0 4.1l24.4 24.4c1.3 1.5 3.7.5 3.7-1.5v-13.5h260.2c10.6 0 19.1 8.5 19.1 19z"/><path d="m334.7 277.5c-1.4-1.4-3.7-.4-3.7 1.6v13.6h-259.7c-10.5 0-19.1-8.5-19.1-19.1v-178.4h140.6c17.9 0 32.5 14.6 32.5 32.5s-14.6 32.5-32.5 32.5h-75.7c-2.4 0-4.4 2-4.4 4.4v8.4 81.2c0 2.4 2 4.4 4.4 4.4h13.9c2.4 0 4.4-2 4.4-4.4v-71.3h57.4c30.4 0 55.2-24.8 55.2-55.2s-24.8-55.2-55.2-55.2h-159c-2.4 0-4.4 2-4.4 4.4v197.4c0 22.6 18.4 41 41 41h260.6v13.6c0 2 2.4 2.9 3.7 1.6l24.4-24.4c1.1-1.1 1.1-3 0-4.1z"/></g></svg>