<svg enable-background="new 0 0 1000 222" height="222" viewBox="0 0 1000 222" width="1000" xmlns="http://www.w3.org/2000/svg"><g fill="#fff"><path d="m419.3 139.8c-1.1-.8-2.2-.6-3.2.6-1.3 2.2-4 4.5-7.9 6.8s-8.6 3.5-14.1 3.5c-5.4 0-10.4-2-14.7-6.1-4.2-3.9-6.6-9.6-7-16.7h49c1.6 0 2.4-.8 2.4-2.3v-1.1c0-10.3-2.7-18.6-8.1-24.6-5.4-6.1-12.9-9.2-22.3-9.2s-17.5 3.2-24 9.4c-6.5 6.3-9.8 14.9-9.8 25.7s3.3 19.5 9.9 25.9c6.5 6.4 14.8 9.6 24.5 9.6 4.3 0 8.3-.6 12.1-1.8 3.7-1.2 6.9-2.7 9.2-4.5 2.3-1.7 4.2-3.3 5.5-4.7s2.2-2.4 2.6-3.1c.5-.7.7-1.3.7-1.9s-.3-1.1-1-1.8zm-39.9-34.5c3.8-3 8.5-4.6 13.9-4.6 5.3 0 9.7 1.7 12.9 4.9 3.1 3.2 4.8 7.5 5.2 12.8h-38.7c.7-5.7 3-10.1 6.7-13.1z"/><path d="m549.1 150.2h-7.2v-56.4c0-1.4-.8-2.2-2.2-2.2h-17.1c-1.4 0-2.2.8-2.2 2.2v5.9c0 1.4.8 2.2 2.2 2.2h6.9v37.4c0 .3-.3 1.3-2.4 4-3.7 4.8-8.9 7.2-15.4 7.2-4.8 0-8.5-1.4-10.9-4.2-2.5-2.8-3.7-6.9-3.7-12.1v-36.3c0-4.1-2.2-6.3-6.4-6.3h-12.9-.3-28.7v-13.4c0-1.6-.8-2.4-2.3-2.4h-7.7c-1.6 0-2.4.9-2.4 2.4v13.4h-7.2c-1.6 0-2.4.8-2.4 2.3v5.6c0 1.5.9 2.3 2.4 2.3h7.2v35.6c0 7.7 2 13.7 6 17.8s9.2 6.1 15.4 6.1 11.4-1.8 15.6-5.5c.7-.7 1-1.2 1-1.8 0-.5-.2-1.1-.7-1.5l-3.3-4.3c-.9-1.1-2.1-1.2-3.2-.2-1.6 1.6-4.1 2.5-7.4 2.5s-5.9-1.1-7.9-3.3-3-5.6-3-10.1v-35.3h28.7.3 7v35c.1 7.3 2.3 13.3 6.7 17.8 4.4 4.4 10.3 6.7 17.8 6.7 10.2 0 17.4-3.7 21.4-11v3.8c0 4.1 2.2 6.3 6.4 6.3h12c1.5 0 2.3-.8 2.3-2.2v-5.9c-.1-1.4-.9-2.1-2.4-2.1z"/><path d="m608.4 91.4c-4.7 0-9 .7-12.8 2.1s-6.7 3-8.7 4.7-3.9 3.9-5.5 6.5c-1.1 1.7-1.9 3.1-2.4 4.3v-15.2c0-1.4-.8-2.2-2.3-2.2h-16.1c-1.5 0-2.3.8-2.3 2.2v5.9c0 1.4.8 2.2 2.3 2.2h7.1v48.3h-7.1c-1.5 0-2.3.8-2.3 2.2v5.9c0 1.4.8 2.2 2.3 2.2h26.3c1.5 0 2.3-.8 2.3-2.2v-5.9c0-1.4-.8-2.2-2.3-2.2h-6.8v-22.6c0-6.3 2.3-11.9 6.9-16.9 3.4-3.7 7.8-6 13.1-7v2.9c0 1.2 1 2.1 2.1 2.1h6.3c1.2 0 2.1-1 2.1-2.1v-5.6-2.5-4.8c.1-1.5-.7-2.3-2.2-2.3z"/><path d="m690.6 150.2h-7.2v-35c-.1-7.4-2.3-13.4-6.5-17.8s-10.1-6.6-17.6-6.6c-9.8 0-17.2 3.8-22 11.3l.2-8.2c0-1.4-.8-2.2-2.3-2.2h-16.1c-1.5 0-2.3.8-2.3 2.2v5.9c0 1.4.8 2.2 2.3 2.2h7.1v48.3h-7.1c-1.5 0-2.3.8-2.3 2.2v5.9c0 1.4.8 2.2 2.3 2.2h26.3c1.5 0 2.3-.8 2.3-2.2v-5.9c0-1.4-.8-2.2-2.3-2.2h-6.8v-37.2c.7-1.4 1.3-2.3 1.7-2.9 3.8-5.6 9.2-8.5 16.1-8.5 4.8 0 8.5 1.4 10.9 4.2 2.5 2.8 3.7 6.9 3.7 12.1v36.2c0 4.1 2.2 6.3 6.4 6.3h13.1c1.5 0 2.3-.8 2.3-2.2v-5.9c.1-1.5-.8-2.2-2.2-2.2z"/><path d="m789.5 69.1c-6.3-5.7-14.4-8.6-24.2-8.6h-42.4c-1.5 0-2.3.8-2.3 2.2v7c0 1.4.8 2.2 2.3 2.2h10v77.2h-10c-1.5 0-2.3.8-2.3 2.2v7c0 1.4.8 2.2 2.3 2.2h35.9c1.4 0 2.2-.8 2.2-2.2v-7c0-1.4-.8-2.2-2.2-2.2h-13v-26h17.9c11.1 0 19.8-2.7 25.9-8 6.1-5.4 9.3-13 9.3-22.7.1-9.7-3.1-17.6-9.4-23.3zm-26.3 43.2h-17.4v-40.4h17.5c6.5 0 11.9 1.7 16.1 5.1s6.4 8.6 6.4 15.4c0 13.4-7.4 19.9-22.6 19.9z"/><path d="m870.2 150.2h-7.2v-31.4c0-18.6-9.9-28-29.4-28-6.6 0-12.5 1-17.4 2.9-5 2-8.2 4-9.8 6-1 .9-1.1 2-.3 2.9l3.8 4.8c.8 1.1 2.2 1.1 3.7-.1.5-.4 1.3-.9 2.4-1.5 1-.6 2.8-1.5 5.2-2.5s6.4-1.5 11.9-1.5c11.7 0 17.4 5.5 17.4 16.7v1.1h-11.1c-11.5 0-20.7 1.8-27.3 5.4-6.7 3.6-10.1 9.3-10.1 17 0 6 2.2 10.8 6.5 14.4 4.3 3.5 9.9 5.3 16.6 5.3 11 0 19.9-4.5 26.6-13.3v5.9c0 4.1 2.2 6.3 6.4 6.3h12c1.4 0 2.2-.8 2.2-2.2v-5.9c.1-1.6-.7-2.3-2.1-2.3zm-19.6-11c-5.9 7.6-13.3 11.5-21.9 11.5-4.1 0-7.4-1-9.9-3s-3.7-4.4-3.7-7.5 1.1-5.4 3.4-7.2c2.4-1.8 5.3-2.9 8.7-3.5 3.5-.5 7.9-.8 13.1-.8h10.4v10.5z"/><path d="m915 148.3c-.9-1.1-2.1-1.2-3.2-.2-1.6 1.6-4.1 2.5-7.4 2.5s-5.9-1.1-7.9-3.3-3-5.6-3-10.1v-35.3h17c1.6 0 2.4-.8 2.4-2.3v-5.6c0-1.5-.9-2.3-2.4-2.3h-17v-13.5c0-1.6-.8-2.4-2.3-2.4h-7.7c-1.6 0-2.4.9-2.4 2.4v13.4h-7.2c-1.6 0-2.4.8-2.4 2.3v5.6c0 1.5.9 2.3 2.4 2.3h7.2v35.6c0 7.7 2 13.7 6 17.8s9.2 6.1 15.4 6.1 11.4-1.8 15.6-5.5c.7-.7 1-1.2 1-1.8 0-.5-.2-1.1-.7-1.5z"/><path d="m997.7 150.2h-7.2v-35c-.1-7.4-2.3-13.4-6.5-17.8s-10.1-6.6-17.6-6.6c-9.4 0-16.4 3.2-21 9.6.2-2.2.4-4.5.4-6.9v-30.8c0-1.4-.8-2.2-2.2-2.2h-17.3c-1.5 0-2.3.8-2.3 2.2v5.9c0 1.4.8 2.2 2.3 2.2h7.1v79.4h-7.1c-1.5 0-2.3.8-2.3 2.2v5.9c0 1.4.8 2.2 2.3 2.2h26.3c1.5 0 2.3-.8 2.3-2.2v-5.9c0-1.4-.8-2.2-2.3-2.2h-6.8v-37.1c.7-1.5 1.6-2.9 2.6-4.3.6-.8 1.4-1.6 2.4-2.5 1-.8 2.5-1.8 4.4-3 1.9-1.1 4.7-1.7 8.4-1.7 4.8 0 8.5 1.4 10.9 4.2 2.5 2.8 3.7 6.9 3.7 12.1v36.2c0 4.1 2.2 6.3 6.4 6.3h13.1c1.5 0 2.3-.8 2.3-2.2v-5.9c0-1.4-.8-2.1-2.3-2.1z"/><path d="m356.4 147.4h-.6c-7.1 0-13.5-3.9-16.9-10.1l-10.4-19.4c4.2-1.3 7.7-3.1 10.5-5.5 4-3.9 6.9-8.9 8.2-14.5.1-.5.2-.9.3-1.4.1-.3.1-.7.2-1 .2-1.5.3-3.1.3-4.8 0-9.6-3.2-17.1-9.4-22.3s-14.4-7.9-24.3-7.9h-42.4c-1.5 0-2.3.8-2.3 2.2v7c0 1.4.8 2.2 2.3 2.2h10v77.2h-10c-1.5 0-2.3.8-2.3 2.2v7c0 1.4.8 2.2 2.3 2.2h34.8c1.2 0 2.2-1 2.2-2.2v-7c0-1.2-1-2.2-2.2-2.2h-11.9v-28.4h17c2.1 0 4.1 1.2 5.1 3l10.7 19.8c5.6 10.4 16.5 16.9 28.3 16.9h.6c1.2 0 2.2-1 2.2-2.2v-8.7c-.2-1.1-1.1-2.1-2.3-2.1zm-44.5-37.6h-17.1v-38h17.1c15.4 0 22.9 6.3 22.9 19.3 0 12.6-7.5 18.7-22.9 18.7z"/><path d="m206.7 38.6v119.6h-30.3c-10.1 0-19.5-5.5-24.4-14.3l-6-10.6c-.3-.5-.9-.8-1.5-.6-4 1.2-8.2 1.8-12.3 1.8h-1.8c-.6 0-.9.6-.6 1.1l8.8 15.7c7.6 13.7 22 22.1 37.7 22.1h42.7c1.6 0 2.9-1.3 2.9-2.9v-132.4c0-15.2-12.3-27.5-27.5-27.5h-175v-9.1c0-1.3-1.6-2-2.5-1l-16.3 16.3c-.8.8-.8 2 0 2.8l16.4 16.4c.9.9 2.5.3 2.5-1v-9.1h174.5c7-.1 12.7 5.6 12.7 12.7z"/><path d="m224.5 186.1c-.9-.9-2.5-.3-2.5 1v9.1h-174.2c-7.1 0-12.8-5.7-12.8-12.8v-119.5h94.3c12 0 21.8 9.8 21.8 21.8s-9.8 21.8-21.8 21.8h-50.8c-1.6 0-2.9 1.3-2.9 2.9v5.6 54.5c0 1.6 1.3 2.9 2.9 2.9h9.3c1.6 0 2.9-1.3 2.9-2.9v-47.8h38.5c20.4 0 37-16.6 37-37s-16.6-37-37-37h-106.6c-1.6 0-2.9 1.3-2.9 2.9v132.4c0 15.2 12.3 27.5 27.5 27.5h174.6v9.1c0 1.3 1.6 2 2.5 1l16.4-16.4c.8-.8.8-2 0-2.8z"/></g></svg>